<svg width="216" height="186" viewBox="0 0 216 186" fill="none" xmlns="http://www.w3.org/2000/svg">
<path d="M194.485 140.091C194.485 140.091 189.349 146.901 184.212 156.244C179.581 164.67 176.059 176.023 175.281 185.501C173.1 185.398 170.704 185.301 168.114 185.209C152.772 184.665 130.625 184.324 105.998 184.324C78.0008 184.324 53.2081 184.765 37.9777 185.444C37.4534 185.467 36.9402 185.491 36.4388 185.515C17.424 161.947 -20.8657 120.887 14.3712 103.995C14.3712 103.995 16.9526 103.209 20.8228 101.52C33.0718 96.1743 58.2428 81.7885 55.443 54.6646C55.443 54.6646 54.4891 49.6032 54.4891 42.5605C54.4891 26.0926 59.7026 -1.20464 94.5083 0.0412028C115.586 0.796735 134.997 11.5224 146.733 28.6901C158.244 45.5286 176.65 66.2461 191.639 54.4183C195.099 51.687 199.674 50.6752 203.946 51.8759C214.735 54.9064 226.992 70.5948 194.485 140.091Z" fill="#FCFCFD"/>
<path d="M143.465 38.2258L135.835 52.5247C135.546 53.0662 134.873 53.2713 134.331 52.9821L121.687 46.2347C121.146 45.9455 120.941 45.2725 121.23 44.7309L130.264 27.8005C130.554 27.2589 131.227 27.0539 131.769 27.3431L141.714 32.6507L141.746 32.7505L143.465 38.2258Z" fill="#E6E6E6"/>
<path opacity="0.1" d="M143.465 38.2259L140.651 36.7243C140.21 36.4891 140.043 35.9409 140.279 35.5002L141.746 32.7505L143.465 38.2259Z" fill="black"/>
<path d="M131.103 41.0182L131.343 40.5691C131.55 40.1808 131.813 39.8872 132.133 39.6888C132.452 39.4899 132.918 39.3467 133.532 39.2581C134.118 39.1812 134.53 39.0843 134.767 38.9661C135.004 38.8486 135.185 38.672 135.31 38.4374C135.451 38.1744 135.46 37.9225 135.34 37.6813C135.219 37.44 134.985 37.2266 134.636 37.0411C134.03 36.7174 133.232 36.5463 132.244 36.5285L132.292 34.8469C133.464 34.8224 134.555 35.0804 135.567 35.6203C136.401 36.0649 136.956 36.6188 137.233 37.2812C137.512 37.9443 137.472 38.609 137.116 39.2765C136.879 39.7217 136.572 40.0521 136.197 40.2677C135.822 40.4833 135.244 40.6427 134.462 40.7447C133.92 40.8249 133.558 40.9118 133.374 41.0065C133.191 41.1012 133.035 41.2701 132.906 41.5124L132.711 41.8763L131.103 41.0182ZM129.802 42.9901C129.983 42.6502 130.211 42.4418 130.486 42.3649C130.761 42.288 131.072 42.3426 131.42 42.5282C131.756 42.7076 131.969 42.9349 132.058 43.2113C132.147 43.4876 132.103 43.7913 131.926 44.1234C131.755 44.4432 131.528 44.6449 131.244 44.7301C130.96 44.8148 130.652 44.7686 130.32 44.592C129.98 44.4109 129.765 44.1802 129.675 43.9011C129.585 43.6214 129.627 43.3177 129.802 42.9901Z" fill="#FCFCFD"/>
<path d="M39.5309 114.164L30.5113 128.004C30.1698 128.529 29.4677 128.677 28.9434 128.335L16.705 120.359C16.1807 120.017 16.0325 119.315 16.3746 118.791L27.0546 102.404C27.3961 101.879 28.0982 101.731 28.6225 102.073L38.2499 108.348L38.2728 108.451L39.5309 114.164Z" fill="#E6E6E6"/>
<path opacity="0.1" d="M39.5305 114.164L36.8065 112.389C36.3797 112.111 36.2594 111.539 36.5374 111.112L38.2719 108.451L39.5305 114.164Z" fill="black"/>
<path d="M29.7318 120.625L28.0998 119.561L28.194 115.991L24.9651 117.519L23.4346 116.521L27.9354 114.503L27.9694 109.875L29.5457 110.903L29.4175 114.274L32.4224 112.777L33.9619 113.781L29.6677 115.744L29.7318 120.625Z" fill="#FCFCFD"/>
<path d="M196.315 70.3344L202.232 85.7582C202.456 86.3427 202.164 86.9979 201.58 87.2219L187.942 92.4538C187.357 92.6778 186.702 92.3858 186.478 91.8019L179.472 73.5393C179.248 72.9548 179.54 72.2996 180.124 72.0756L190.853 67.9597L190.95 68.0021L196.315 70.3344Z" fill="#E6E6E6"/>
<path opacity="0.1" d="M196.315 70.3344L193.28 71.4989C192.804 71.6811 192.271 71.4438 192.088 70.9679L190.95 68.0021L196.315 70.3344Z" fill="black"/>
<path d="M194.93 83.6225L193.775 84.0654L192.161 83.1739L191.557 84.9162L190.474 85.3319L191.367 82.9293L189.239 81.8116L190.355 81.3837L191.863 82.2418L192.391 80.6026L193.48 80.1847L192.645 82.4853L194.93 83.6225Z" fill="#FCFCFD"/>
<path d="M194.434 73.2591L183.892 77.3036C183.766 77.3521 183.624 77.2891 183.576 77.1632C183.527 77.0373 183.59 76.8957 183.716 76.8473L194.259 72.8027C194.385 72.7543 194.526 72.8172 194.575 72.9431C194.623 73.0691 194.56 73.2106 194.434 73.2591Z" fill="#FCFCFD"/>
<path d="M194.89 74.3986L184.348 78.4431C184.222 78.4916 184.08 78.4286 184.032 78.3027C183.984 78.1768 184.046 78.0353 184.172 77.9868L194.715 73.9423C194.841 73.8938 194.982 73.9567 195.031 74.0827C195.079 74.2091 195.016 74.3507 194.89 74.3986Z" fill="#FCFCFD"/>
<path d="M195.344 75.5385L184.802 79.583C184.676 79.6315 184.535 79.5685 184.486 79.4426C184.438 79.3167 184.501 79.1752 184.626 79.1267L195.169 75.0821C195.295 75.0337 195.436 75.0966 195.485 75.2226C195.533 75.3485 195.47 75.49 195.344 75.5385Z" fill="#FCFCFD"/>
<path d="M195.799 76.6778L185.257 80.7223C185.131 80.7708 184.99 80.7078 184.941 80.5819C184.893 80.456 184.956 80.3144 185.082 80.266L195.624 76.2214C195.75 76.173 195.891 76.2359 195.94 76.3618C195.988 76.4883 195.925 76.6293 195.799 76.6778Z" fill="#FCFCFD"/>
<path d="M196.17 77.8551L185.627 81.8997C185.501 81.9481 185.36 81.8852 185.311 81.7593C185.263 81.6333 185.326 81.4918 185.452 81.4433L195.994 77.3988C196.12 77.3503 196.261 77.4133 196.31 77.5392C196.358 77.6657 196.295 77.8072 196.17 77.8551Z" fill="#FCFCFD"/>
<path d="M41.9592 154.643L48.6135 169.763C48.8654 170.336 48.6057 171.005 48.033 171.257L34.6624 177.141C34.0896 177.393 33.421 177.134 33.1686 176.561L25.2896 158.658C25.0377 158.085 25.2974 157.416 25.8701 157.164L36.388 152.535L36.4877 152.572L41.9592 154.643Z" fill="#E6E6E6"/>
<path opacity="0.1" d="M41.9578 154.643L38.9819 155.953C38.5156 156.158 37.9712 155.946 37.7662 155.48L36.4863 152.573L41.9578 154.643Z" fill="black"/>
<path d="M41.2195 167.983L40.0873 168.481L38.4319 167.668L37.9126 169.438L36.8512 169.905L37.6274 167.463L35.4482 166.449L36.542 165.968L38.0898 166.752L38.5378 165.09L39.6059 164.62L38.8827 166.958L41.2195 167.983Z" fill="#FCFCFD"/>
<path d="M40.2219 157.655L29.8869 162.203C29.7632 162.258 29.6189 162.202 29.5648 162.078C29.5102 161.954 29.5665 161.81 29.6902 161.756L40.0253 157.208C40.1489 157.153 40.2933 157.209 40.3473 157.333C40.4013 157.457 40.3456 157.601 40.2219 157.655Z" fill="#FCFCFD"/>
<path d="M40.7307 158.772L30.3956 163.32C30.272 163.375 30.1276 163.318 30.0736 163.195C30.019 163.071 30.0753 162.927 30.199 162.873L40.534 158.324C40.6577 158.27 40.802 158.326 40.8561 158.45C40.9101 158.573 40.8539 158.717 40.7307 158.772Z" fill="#FCFCFD"/>
<path d="M41.2424 159.888L30.9074 164.436C30.7837 164.491 30.6394 164.434 30.5853 164.311C30.5307 164.187 30.587 164.043 30.7107 163.989L41.0458 159.44C41.1695 159.386 41.3138 159.442 41.3678 159.566C41.4224 159.689 41.3661 159.834 41.2424 159.888Z" fill="#FCFCFD"/>
<path d="M41.7512 161.005L31.4162 165.553C31.2925 165.607 31.1482 165.551 31.0941 165.427C31.0395 165.304 31.0958 165.159 31.2195 165.105L41.5545 160.557C41.6782 160.503 41.8226 160.559 41.8766 160.682C41.9312 160.806 41.8749 160.95 41.7512 161.005Z" fill="#FCFCFD"/>
<path d="M42.176 162.162L31.841 166.71C31.7173 166.765 31.573 166.709 31.5189 166.585C31.4643 166.461 31.5206 166.317 31.6443 166.263L41.9794 161.715C42.103 161.66 42.2474 161.717 42.3014 161.84C42.3554 161.964 42.2997 162.108 42.176 162.162Z" fill="#FCFCFD"/>
<path d="M88.1496 45.4921L94.804 60.6122C95.0558 61.185 94.7962 61.8536 94.2234 62.106L80.8528 67.9904C80.28 68.2422 79.6114 67.9826 79.359 67.4098L71.48 49.5066C71.2281 48.9338 71.4878 48.2652 72.0606 48.0128L82.5784 43.3838L82.6781 43.4211L88.1496 45.4921Z" fill="#E6E6E6"/>
<path opacity="0.1" d="M88.1502 45.492L85.1743 46.802C84.708 47.007 84.1636 46.7953 83.9585 46.3295L82.6787 43.4221L88.1502 45.492Z" fill="black"/>
<path d="M87.4109 58.8313L86.2787 59.3294L84.6233 58.517L84.104 60.2866L83.0426 60.7541L83.8188 58.3114L81.6396 57.2979L82.7334 56.8165L84.2812 57.601L84.7292 55.9384L85.7973 55.4681L85.0741 57.8066L87.4109 58.8313Z" fill="#FCFCFD"/>
<path d="M86.4153 48.504L76.0802 53.0523C75.9565 53.1069 75.8122 53.0506 75.7582 52.9269C75.7036 52.8032 75.7598 52.6589 75.8835 52.6049L86.2186 48.0566C86.3423 48.002 86.4866 48.0583 86.5407 48.182C86.5947 48.3057 86.539 48.4494 86.4153 48.504Z" fill="#FCFCFD"/>
<path d="M86.9251 49.6207L76.59 54.169C76.4663 54.2236 76.322 54.1673 76.2679 54.0436C76.2133 53.9199 76.2696 53.7756 76.3933 53.7216L86.7284 49.1733C86.8521 49.1187 86.9964 49.175 87.0504 49.2987C87.1045 49.4218 87.0482 49.5661 86.9251 49.6207Z" fill="#FCFCFD"/>
<path d="M87.4338 50.7366L77.0988 55.2848C76.9751 55.3394 76.8308 55.2832 76.7767 55.1595C76.7221 55.0358 76.7784 54.8915 76.9021 54.8374L87.2372 50.2892C87.3609 50.2346 87.5052 50.2909 87.5592 50.4145C87.6138 50.5382 87.5575 50.6825 87.4338 50.7366Z" fill="#FCFCFD"/>
<path d="M87.9436 51.8532L77.6085 56.4014C77.4849 56.456 77.3405 56.3997 77.2865 56.276C77.2319 56.1523 77.2882 56.008 77.4119 55.954L87.7469 51.4058C87.8706 51.3512 88.0149 51.4074 88.069 51.5311C88.1236 51.6543 88.0673 51.7986 87.9436 51.8532Z" fill="#FCFCFD"/>
<path d="M88.3694 53.011L78.0343 57.5592C77.9106 57.6138 77.7663 57.5576 77.7123 57.4339C77.6577 57.3102 77.7139 57.1659 77.8376 57.1118L88.1727 52.5636C88.2964 52.509 88.4407 52.5653 88.4948 52.689C88.5488 52.8127 88.4931 52.957 88.3694 53.011Z" fill="#FCFCFD"/>
<path d="M157.678 87.6919H54.3154V162.696H157.678V87.6919Z" fill="#E6E6E6"/>
<path d="M157.677 78.2766H54.3545V87.713H157.677V78.2766Z" fill="#FCFCFD"/>
<path d="M59.1358 84.0637C60.0128 84.0637 60.7238 83.3877 60.7238 82.5538C60.7238 81.7198 60.0128 81.0438 59.1358 81.0438C58.2588 81.0438 57.5479 81.7198 57.5479 82.5538C57.5479 83.3877 58.2588 84.0637 59.1358 84.0637Z" fill="#E6E6E6"/>
<path d="M63.7676 84.0638C64.6446 84.0638 65.3556 83.3878 65.3556 82.5539C65.3556 81.72 64.6446 81.0439 63.7676 81.0439C62.8906 81.0439 62.1797 81.72 62.1797 82.5539C62.1797 83.3878 62.8906 84.0638 63.7676 84.0638Z" fill="#E6E6E6"/>
<path d="M68.3956 84.0638C69.2726 84.0638 69.9835 83.3878 69.9835 82.5539C69.9835 81.72 69.2726 81.0439 68.3956 81.0439C67.5186 81.0439 66.8076 81.72 66.8076 82.5539C66.8076 83.3878 67.5186 84.0638 68.3956 84.0638Z" fill="#E6E6E6"/>
<path d="M154.566 91.6405H57.4238V158.747H154.566V91.6405Z" fill="#F4F6FC"/>
<path d="M121.063 108.141V137.646C121.063 138.764 120.157 139.67 119.04 139.67H92.9495C91.8318 139.67 90.9258 138.764 90.9258 137.646V102.71C90.9258 101.593 91.8318 100.687 92.9495 100.687H113.474L113.609 100.82L121.063 108.141Z" fill="#FCFCFD"/>
<path opacity="0.15" d="M121.063 108.141H115.256C114.346 108.141 113.608 107.403 113.608 106.493V100.819L121.063 108.141Z" fill="black"/>
<path d="M113.234 125.163C113.005 125.163 112.804 125.015 112.731 124.798C112.54 124.235 111.915 123.678 110.953 123.23C109.638 122.618 107.878 122.28 105.997 122.28C104.116 122.28 102.355 122.617 101.04 123.23C100.078 123.678 99.4531 124.235 99.262 124.798C99.1885 125.015 98.9879 125.163 98.7594 125.163C98.3984 125.163 98.1421 124.81 98.2558 124.467C98.5388 123.615 99.3445 122.853 100.593 122.271C102.045 121.595 103.964 121.222 105.996 121.222C108.028 121.222 109.947 121.595 111.399 122.271C112.648 122.853 113.453 123.615 113.736 124.467C113.851 124.81 113.595 125.163 113.234 125.163Z" fill="white"/>
<path d="M102.11 119.583C103.322 119.583 104.304 118.6 104.304 117.388C104.304 116.176 103.322 115.193 102.11 115.193C100.898 115.193 99.915 116.176 99.915 117.388C99.915 118.6 100.898 119.583 102.11 119.583Z" fill="white"/>
<path d="M109.884 119.583C111.096 119.583 112.079 118.6 112.079 117.388C112.079 116.176 111.096 115.193 109.884 115.193C108.672 115.193 107.689 116.176 107.689 117.388C107.689 118.6 108.672 119.583 109.884 119.583Z" fill="white"/>
<path d="M97.5481 149.65H96.5363L94.9027 146.809H94.8793C94.9116 147.311 94.9283 147.668 94.9283 147.882V149.65H94.2168V145.894H95.2214L96.8528 148.707H96.8706C96.845 148.219 96.8322 147.874 96.8322 147.672V145.894H97.5487V149.65H97.5481Z" fill="black"/>
<path d="M101.901 147.767C101.901 148.389 101.747 148.866 101.439 149.201C101.131 149.534 100.689 149.702 100.113 149.702C99.5376 149.702 99.0958 149.534 98.7876 149.201C98.4795 148.867 98.3252 148.387 98.3252 147.762C98.3252 147.137 98.4795 146.66 98.7888 146.33C99.098 146 99.541 145.836 100.118 145.836C100.695 145.836 101.137 146.002 101.443 146.334C101.748 146.666 101.901 147.144 101.901 147.767ZM99.1598 147.767C99.1598 148.187 99.2395 148.503 99.3989 148.715C99.5582 148.927 99.7961 149.034 100.113 149.034C100.748 149.034 101.066 148.611 101.066 147.767C101.066 146.921 100.75 146.498 100.118 146.498C99.8012 146.498 99.5627 146.605 99.4017 146.818C99.2406 147.031 99.1598 147.348 99.1598 147.767Z" fill="black"/>
<path d="M107.164 147.736C107.164 148.354 106.988 148.827 106.636 149.156C106.284 149.485 105.776 149.649 105.112 149.649H104.048V145.894H105.227C105.84 145.894 106.316 146.055 106.655 146.379C106.994 146.703 107.164 147.156 107.164 147.736ZM106.337 147.756C106.337 146.95 105.981 146.547 105.268 146.547H104.844V148.992H105.186C105.953 148.992 106.337 148.581 106.337 147.756Z" fill="black"/>
<path d="M110.24 149.65L109.967 148.756H108.598L108.326 149.65H107.468L108.793 145.879H109.767L111.097 149.65H110.24ZM109.778 148.088C109.526 147.278 109.384 146.82 109.353 146.714C109.321 146.607 109.298 146.524 109.285 146.462C109.228 146.681 109.066 147.223 108.799 148.088H109.778Z" fill="black"/>
<path d="M113.019 149.65H112.223V146.557H111.203V145.894H114.039V146.557H113.02V149.65H113.019Z" fill="black"/>
<path d="M116.916 149.65L116.644 148.756H115.275L115.003 149.65H114.145L115.47 145.879H116.443L117.774 149.65H116.916ZM116.455 148.088C116.203 147.278 116.061 146.82 116.029 146.714C115.998 146.607 115.975 146.524 115.961 146.462C115.905 146.681 115.743 147.223 115.476 148.088H116.455Z" fill="black"/>
</svg>
