<svg width="20" height="20" viewBox="0 0 20 20" fill="none" xmlns="http://www.w3.org/2000/svg">
<path fill-rule="evenodd" clip-rule="evenodd" d="M16.8748 12.0827C16.8748 9.51102 16.8748 7.96935 16.8748 7.01101C16.8748 6.62435 16.7215 6.25352 16.4473 5.98018C15.599 5.13185 12.784 2.31685 11.9357 1.46852C11.6623 1.19435 11.2915 1.04102 10.9048 1.04102C9.84651 1.04102 6.5965 1.04102 4.58317 1.04102C3.97567 1.04102 3.39234 1.28268 2.96234 1.71185C2.53317 2.14185 2.2915 2.72518 2.2915 3.33268V16.666C2.2915 17.2735 2.53317 17.8568 2.96234 18.2868C3.39234 18.716 3.97567 18.9577 4.58317 18.9577H12.0832C12.4282 18.9577 12.7082 18.6777 12.7082 18.3327C12.7082 17.9877 12.4282 17.7077 12.0832 17.7077H4.58317C4.3065 17.7077 4.04234 17.5977 3.8465 17.4027C3.6515 17.2069 3.5415 16.9427 3.5415 16.666V3.33268C3.5415 3.05602 3.6515 2.79185 3.8465 2.59602C4.04234 2.40102 4.3065 2.29102 4.58317 2.29102H10.9048C10.9598 2.29102 11.0132 2.31268 11.0523 2.35185L15.564 6.86352C15.6032 6.90268 15.6248 6.95602 15.6248 7.01101V12.0827C15.6248 12.4277 15.9048 12.7077 16.2498 12.7077C16.5948 12.7077 16.8748 12.4277 16.8748 12.0827Z" fill="#667084"/>
<path fill-rule="evenodd" clip-rule="evenodd" d="M10.625 2.08203V4.9987C10.625 6.26453 11.6508 7.29037 12.9167 7.29037H15.8333C16.1783 7.29037 16.4583 7.01037 16.4583 6.66537C16.4583 6.32036 16.1783 6.04037 15.8333 6.04037H12.9167C12.3417 6.04037 11.875 5.5737 11.875 4.9987V2.08203C11.875 1.73703 11.595 1.45703 11.25 1.45703C10.905 1.45703 10.625 1.73703 10.625 2.08203Z" fill="#667084"/>
<path fill-rule="evenodd" clip-rule="evenodd" d="M17.4997 15.207H13.333C12.988 15.207 12.708 15.487 12.708 15.832C12.708 16.177 12.988 16.457 13.333 16.457H17.4997C17.8447 16.457 18.1247 16.177 18.1247 15.832C18.1247 15.487 17.8447 15.207 17.4997 15.207Z" fill="#667084"/>
<path fill-rule="evenodd" clip-rule="evenodd" d="M15.3916 14.6075L16.6158 15.8325L15.3916 17.0575C15.1475 17.3008 15.1475 17.6975 15.3916 17.9408C15.635 18.185 16.0316 18.185 16.275 17.9408L17.9416 16.2741C18.1858 16.03 18.1858 15.635 17.9416 15.3908L16.275 13.7241C16.0316 13.48 15.635 13.48 15.3916 13.7241C15.1475 13.9675 15.1475 14.3641 15.3916 14.6075Z" fill="#667084"/>
</svg>
