<svg id="XMLID_593_" xmlns="http://www.w3.org/2000/svg" width="28.093" height="20.449" viewBox="0 0 28.093 20.449">
  <path id="XMLID_807_" d="M25.216,68.778H2.878A2.881,2.881,0,0,0,0,71.656V82.11H5.394a.834.834,0,0,1,.834.834v6.284H25.216a2.881,2.881,0,0,0,2.878-2.878V71.656A2.881,2.881,0,0,0,25.216,68.778Zm-6.608,7.905a.834.834,0,1,1,1.184-1.174,4.892,4.892,0,0,1-.047,6.911.834.834,0,0,1-1.174-1.184A3.223,3.223,0,0,0,18.608,76.683Zm1.914,6.59a6.124,6.124,0,0,0,.067-8.65.834.834,0,0,1,1.184-1.174A7.793,7.793,0,0,1,21.7,84.457a.834.834,0,0,1-1.174-1.184ZM16.27,78.049a.834.834,0,0,1,1.184-1.174,2.975,2.975,0,0,1-.027,4.2.834.834,0,0,1-1.174-1.184A1.306,1.306,0,0,0,16.27,78.049ZM3.5,74.013a.834.834,0,0,1,.834-.834h7.719a.834.834,0,0,1,0,1.667H4.338A.834.834,0,0,1,3.5,74.013Zm1.151,4.079a.834.834,0,1,1,0-1.667H8.2a.834.834,0,1,1,0,1.667Z" transform="translate(0 -68.778)" fill="#5c940d"/>
  <path id="XMLID_862_" d="M4.56,338.691H0v2.573a2.881,2.881,0,0,0,2.878,2.878H4.56v-5.451Z" transform="translate(0 -323.692)" fill="#5c940d"/>
</svg>
