<svg id="Page-1" xmlns="http://www.w3.org/2000/svg" width="32" height="32" viewBox="0 0 32 32">
  <g id="Core">
    <g id="shopping-cart">
      <path id="Shape" d="M9.6,25.6a3.2,3.2,0,1,0,3.2,3.2,3.209,3.209,0,0,0-3.2-3.2ZM0,0V3.2H3.2L8.96,15.36,6.72,19.2a5.685,5.685,0,0,0-.32,1.6A3.209,3.209,0,0,0,9.6,24H28.8V20.8H10.24a.344.344,0,0,1-.32-.32v-.16l1.44-2.72H23.2A2.918,2.918,0,0,0,25.92,16L31.68,5.6A.881.881,0,0,0,32,4.8a1.512,1.512,0,0,0-1.6-1.6H6.72L5.28,0ZM25.6,25.6a3.2,3.2,0,1,0,3.2,3.2,3.209,3.209,0,0,0-3.2-3.2Z" fill="#171846"/>
    </g>
  </g>
</svg>
